Table city {
  id int [pk, increment]
  name varchar(250) [not null, unique, note: 'Nome']
  state_id int [not null, ref: > state.id, note: 'Estado']
  Note: 'Cidade'
}

Table country {
  id int [pk, increment]
  code varchar(250) [not null, unique, note: 'Codigo']
  name varchar(250) [not null, unique, note: 'Nome']
  Note: 'Pais'
}

Table event {
  id int [pk, increment]
  city_id int [ref: > city.id, note: 'Cidade']
  cover_image text [note: 'Capa']
  created_at timestamp [note: 'Criado em']
  description text [note: 'Descrição']
  end_date timestamp [note: 'Data de Fim']
  host_id int [not null, ref: > people.id, note: 'Organizador']
  location varchar(250) [note: 'Local']
  name varchar(250) [note: 'Nome']
  participants_count int [note: 'Participantes']
  start_date timestamp [note: 'Data de Início']
  updated_at timestamp [note: 'Editado em']
  Note: 'Evento'
}

Table event_participant {
  id int [pk, increment]
  attendance_status varchar(250) [note: 'Estado de Presença']
  created_at timestamp [note: 'Criado em']
  event_id int [not null, ref: > event.id, note: 'Evento']
  people_id int [not null, ref: > people.id, note: 'Pessoa']
  Note: 'Participante'
}

Table forum_topic {
  id int [pk, increment]
  anonymous boolean [note: 'Amônimo']
  content text [not null, note: 'Conteúdo']
  forum_category_id int [not null, ref: > forum_category.id, note: 'Categoria']
  last_activity_at timestamp [note: 'Útilma Atividade Em']
  moment timestamp [note: 'Momento']
  people_id int [not null, ref: > people.id, note: 'Pessoa']
  replies int [note: 'Respostas']
  title varchar(200) [not null, note: 'Título']
  Note: 'Fórum'
}

Table friend {
  id int [pk, increment]
  accepted_at timestamp [note: 'Aceitado Em']
  friend_id int [not null, ref: > people.id, note: 'Amigo']
  people_id int [not null, ref: > people.id, note: 'Pessoa']
  request_at timestamp [not null, note: 'Pedido Em']
  Note: 'Amigo'
}

Table institution {
  id int [pk, increment]
  address text [note: 'Endereço']
  avatar text [note: 'Avatar']
  city_id int [not null, ref: > city.id, note: 'Cidade']
  cover_image text [note: 'Imagem de Capa']
  description text [note: 'Descrição']
  email varchar(250) [note: 'E-mail']
  instagram varchar(250) [note: 'Instagram']
  name varchar(250) [not null, note: 'Nome']
  post_code varchar(250) [note: 'Código Postal']
  telephone int [note: 'Telefone']
  website varchar(250) [note: 'Website']
  Note: 'Instituição'
}

Table messages {
  id int [pk, increment]
  deleted_at timestamp [note: 'Apagada Em']
  edited_at timestamp [note: 'Editado Em']
  message text [note: 'Mensagem']
  originator_id int [ref: > people.id, note: 'Originador']
  parent_id int [ref: > messages.id, note: 'Pai']
  reaction varchar(1) [note: 'Reação']
  read_at timestamp [note: 'Lido Em']
  recipient_id int [not null, ref: > people.id, note: 'Destinatário']
  sent_at timestamp [not null, note: 'Enviado Em']
  Note: 'Mensagens'
}

Table notification {
  id int [pk, increment]
  content text [note: 'Conteúdo']
  extra text [note: 'Dados Adicionais']
  originator_id int [ref: > people.id, note: 'Originador']
  read_at timestamp [note: 'Lido Em']
  recipient_id int [not null, ref: > people.id, note: 'Destinatário']
  sent_at timestamp [not null, note: 'Enviado Em']
  title varchar(250) [not null, note: 'Título']
  type_id int [not null, ref: > notification_type.id, note: 'Tipo']
  Note: 'Notificação'
}

Table notification_opt_out {
  id int [pk, increment]
  people_id int [not null, ref: > people.id, note: 'Pessoa']
  type_id int [not null, ref: > notification_type.id, note: 'Tipo']
  Note: 'Bloqueios'
}

Table notification_queue {
  id int [pk, increment]
  entity_uid uuid [not null, note: 'UID da entidade']
  originator_id int [not null, ref: > people.id, note: 'Originador']
  type_id int [not null, ref: > notification_type.id, note: 'Tipo']
  Note: 'Fila'
}

Table notification_type {
  id int [pk, increment]
  code varchar(250) [not null, unique, note: 'Código']
  name varchar(250) [not null, unique, note: 'Name']
  Note: 'Tipo'
}

Table people {
  id int [pk, increment]
  accepted_terms_at timestamp [note: 'Termos Aceites Em']
  avatar text [note: 'Avatar']
  birth_date date [not null, note: 'Data de Nascimento']
  city_id int [not null, ref: > city.id, note: 'Cidade']
  cover_image text [note: 'Imagem de Capa']
  description text [note: 'Descrição']
  email varchar(250) [not null, unique, note: 'Email']
  institution_id int [not null, ref: > institution.id, note: 'Instituição']
  name varchar(250) [not null, note: 'Nome']
  order varchar(250) [not null, unique, note: 'Ordem']
  people_user_id int [not null, unique, note: 'Utilizador']
  recovery_key varchar(250) [note: 'Chave de Recuperação']
  recovery_limit timestamp [note: 'Limite de Recuperação']
  Note: 'Pessoa'
}

Table people_photo {
  id int [pk, increment]
  moment timestamp [not null, note: 'Momento']
  people_id int [not null, ref: > people.id, note: 'Pessoa']
  photo text [note: 'Foto']
  Note: 'Foto'
}

Table people_ws_session {
  id int [pk, increment]
  people_id int [not null, ref: > people.id, note: 'Pessoa']
  session_id varchar(250) [not null, note: 'Sessão ID']
  Note: 'Sessão WS'
}

Table post {
  id int [pk, increment]
  comments int [note: 'Comentários']
  content text [not null, note: 'Conteúdo']
  likes int [note: 'Likes']
  moment timestamp [not null, note: 'Momento']
  parent_id int [ref: > post.id, note: 'Pai']
  people_id int [not null, ref: > people.id, note: 'Pessoa']
  Note: 'Publicação'
}

Table post_like {
  id int [pk, increment]
  moment timestamp [not null, note: 'Momento']
  people_id int [not null, ref: > people.id, note: 'Pessoa']
  post_id int [not null, ref: > post.id, note: 'Publicação']
  Note: 'Like'
}

Table report {
  id int [pk, increment]
  created_at timestamp [note: 'Criada Em']
  entity int [note: 'Entidade']
  report_entity_type_id int [ref: > report_entity_type.id, note: 'Tipo']
  report_status_id int [ref: > report_status.id, note: 'Estado']
  resolution_notes text [note: 'Notas']
  resolved_at timestamp [note: 'Resolvido Em']
  resolved_by_id int [ref: > people.id, note: 'Resolvido Por']
  Note: 'Denúncia'
}

Table report_entity_type {
  id int [pk, increment]
  code varchar(250) [note: 'Código']
  title varchar(250) [note: 'Título']
  Note: 'Tipo de Entidade'
}

Table report_history {
  id int [pk, increment]
  moment timestamp [note: 'Momento']
  notes text [note: 'Notas']
  people_id int [ref: > people.id, note: 'Pessoa']
  report_id int [ref: > report.id, note: 'Denúncia']
  report_status_id int [ref: > report_status.id, note: 'Estado']
  Note: 'Histórico de Denúncias'
}

Table report_item {
  id int [pk, increment]
  description text [note: 'Descrição']
  moment timestamp [note: 'Momento']
  report_id int [ref: > report.id, note: 'Denúncia Principal']
  report_reason_id int [ref: > report_reason.id, note: 'Motivo']
  reporter_id int [ref: > people.id, note: 'Denunciado Por']
  Note: 'Registro'
}

Table report_reason {
  id int [pk, increment]
  code varchar(250) [note: 'Código']
  title varchar(250) [note: 'Título']
  Note: 'Motivo'
}

Table report_status {
  id int [pk, increment]
  code varchar(250) [note: 'Código']
  title varchar(250) [note: 'Título']
  Note: 'Estado'
}

Table service {
  id int [pk, increment]
  category_id int [not null, ref: > service_category.id, note: 'Categoria']
  city_id int [not null, ref: > city.id, note: 'Cidade']
  created_at timestamp [note: 'Data de Criação']
  description text [note: 'Descrição']
  instagram varchar(250) [note: 'Instagram']
  name varchar(250) [not null, note: 'Nome']
  phone varchar(250) [note: 'Telefone']
  website varchar(250) [note: 'Website']
  Note: 'Prestação de Serviço'
}

Table service_category {
  id int [pk, increment]
  description varchar(250) [note: 'Descrição']
  name varchar(250) [not null, note: 'Nome']
  Note: 'Categoria'
}

Table service_favorite {
  id int [pk, increment]
  person_id int [ref: > people.id, note: 'Pessoa']
  service_id int [ref: > service.id, note: 'Serviço']
  Note: 'Favorito'
}

Table state {
  id int [pk, increment]
  code varchar(250) [not null, unique, note: 'Codigo']
  country_id int [not null, ref: > country.id, note: 'Pais']
  name varchar(250) [not null, unique, note: 'Nome']
  Note: 'Estado'
}

Table forum_category {
  id int [pk, increment]
  description varchar(150) [not null, note: 'Descrição']
  last_activity_at timestamp [note: 'Útilma Atividade Em']
  moment timestamp [note: 'Momento']
  name varchar(250) [not null, unique, note: 'Nome']
  topics int [note: 'Topicos']
  Note: 'Categoria'
}

Table forum_reply {
  id int [pk, increment]
  anonymous boolean [note: 'Anônimo']
  content text [not null, note: 'Conteúdo']
  likes int [note: 'Likes']
  moment timestamp [note: 'Momento']
  people_id int [not null, ref: > people.id, note: 'Pessoa']
  topic_id int [not null, ref: > forum_topic.id, note: 'Tópico']
  Note: 'Resposta'
}

Table forum_reply_like {
  id int [pk, increment]
  forum_reply_id int [not null, ref: > forum_reply.id, note: 'Resposta']
  moment timestamp [not null, note: 'Momento']
  people_id int [not null, ref: > people.id, note: 'Pessoa']
  Note: 'Like'
}

